<svg width="1480" height="1560" viewBox="0 0 1480 1560" xmlns="http://www.w3.org/2000/svg" font-family="Helvetica, Arial, sans-serif">
<rect x="0" y="0" width="1480" height="1560" fill="#ffffff"/>
<defs>
  <marker id="arrow" viewBox="0 0 10 10" refX="9" refY="5" markerWidth="8" markerHeight="8" orient="auto-start-reverse">
    <path d="M 0 0 L 10 5 L 0 10 z" fill="#333333"/>
  </marker>
</defs>
<rect x="15" y="445" width="350" height="310" fill="none" stroke="#999999" stroke-width="1.5" stroke-dasharray="6,4" rx="8"/>
<text x="29" y="435" font-size="14" font-weight="600" fill="#666666">ACQUIRE -- wide-driven, coarse</text>
<rect x="755" y="445" width="350" height="470" fill="none" stroke="#999999" stroke-width="1.5" stroke-dasharray="6,4" rx="8"/>
<text x="769" y="435" font-size="14" font-weight="600" fill="#666666">HANDOFF -- telephoto-driven, fine</text>
<path d="M 190.0 150.0 L 190.0 220.0 L 430.0 220.0 L 430.0 315.0" fill="none" stroke="#333333" stroke-width="1.75" marker-end="url(#arrow)"/>
<rect x="239.6" y="201.0" width="140.8" height="38" fill="#ffffff" fill-opacity="0.92"/>
<text x="310.0" y="216.0" font-size="11.5" fill="#333333" text-anchor="middle">frame: ndarray (BGR)</text>
<text x="310.0" y="231.0" font-size="11.5" fill="#333333" text-anchor="middle">(ACQUIRE, every frame)</text>
<path d="M 930.0 150.0 L 930.0 220.0 L 730.0 220.0 L 730.0 315.0" fill="none" stroke="#333333" stroke-width="1.75" marker-end="url(#arrow)"/>
<rect x="750.0" y="201.0" width="160.0" height="38" fill="#ffffff" fill-opacity="0.92"/>
<text x="830.0" y="216.0" font-size="11.5" fill="#333333" text-anchor="middle">frame: ndarray (BGR)</text>
<text x="830.0" y="231.0" font-size="11.5" fill="#333333" text-anchor="middle">(handoff check / HANDOFF)</text>
<path d="M 430.0 315.0 L 190.0 315.0 L 190.0 470.0" fill="none" stroke="#333333" stroke-width="1.75" marker-end="url(#arrow)"/>
<rect x="103.6" y="296.0" width="172.8" height="38" fill="#ffffff" fill-opacity="0.92"/>
<text x="190.0" y="311.0" font-size="11.5" fill="#333333" text-anchor="middle">detections: list[Detection]</text>
<text x="190.0" y="326.0" font-size="11.5" fill="#333333" text-anchor="middle">(source=wide)</text>
<path d="M 730.0 315.0 L 930.0 315.0 L 930.0 470.0" fill="none" stroke="#333333" stroke-width="1.75" marker-end="url(#arrow)"/>
<rect x="843.6" y="296.0" width="172.8" height="38" fill="#ffffff" fill-opacity="0.92"/>
<text x="930.0" y="311.0" font-size="11.5" fill="#333333" text-anchor="middle">detections: list[Detection]</text>
<text x="930.0" y="326.0" font-size="11.5" fill="#333333" text-anchor="middle">(source=tele)</text>
<path d="M 190.0 554.0 L 190.0 602.0 L 190.0 602.0 L 190.0 650.0" fill="none" stroke="#333333" stroke-width="1.75" marker-end="url(#arrow)"/>
<rect x="119.6" y="590.5" width="140.8" height="23" fill="#ffffff" fill-opacity="0.92"/>
<text x="190.0" y="605.5" font-size="11.5" fill="#333333" text-anchor="middle">target_point (wide px)</text>
<path d="M 190.0 734.0 L 190.0 1029.0 L 450.0 1029.0" fill="none" stroke="#333333" stroke-width="1.75" marker-end="url(#arrow)"/>
<rect x="129.2" y="1017.5" width="121.6" height="23" fill="#ffffff" fill-opacity="0.92"/>
<text x="190.0" y="1032.5" font-size="11.5" fill="#333333" text-anchor="middle">absolute goal ticks</text>
<path d="M 930.0 554.0 L 930.0 602.0 L 930.0 602.0 L 930.0 650.0" fill="none" stroke="#333333" stroke-width="1.75" marker-end="url(#arrow)"/>
<rect x="869.2" y="590.5" width="121.6" height="23" fill="#ffffff" fill-opacity="0.92"/>
<text x="930.0" y="605.5" font-size="11.5" fill="#333333" text-anchor="middle">has lock: Detection</text>
<path d="M 930.0 728.0 L 930.0 769.0 L 930.0 769.0 L 930.0 810.0" fill="none" stroke="#333333" stroke-width="1.75" marker-end="url(#arrow)"/>
<rect x="859.6" y="757.5" width="140.8" height="23" fill="#ffffff" fill-opacity="0.92"/>
<text x="930.0" y="772.5" font-size="11.5" fill="#333333" text-anchor="middle">pixel_error_x/y: float</text>
<path d="M 930.0 888.0 L 930.0 1029.0 L 710.0 1029.0" fill="none" stroke="#333333" stroke-width="1.75" marker-end="url(#arrow)"/>
<rect x="843.6" y="1017.5" width="172.8" height="23" fill="#ffffff" fill-opacity="0.92"/>
<text x="930.0" y="1032.5" font-size="11.5" fill="#333333" text-anchor="middle">pan/tilt_delta: int (ticks)</text>
<path d="M 580.0 1068.0 L 580.0 1099.0 L 580.0 1099.0 L 580.0 1130.0" fill="none" stroke="#333333" stroke-width="1.75" marker-end="url(#arrow)"/>
<rect x="480.8" y="1087.5" width="198.4" height="23" fill="#ffffff" fill-opacity="0.92"/>
<text x="580.0" y="1102.5" font-size="11.5" fill="#333333" text-anchor="middle">goal_position: int (sync write)</text>
<path d="M 580.0 1208.0 L 580.0 1239.0 L 420.0 1239.0 L 420.0 1270.0" fill="none" stroke="#333333" stroke-width="1.75" marker-end="url(#arrow)"/>
<rect x="445.6" y="1227.5" width="108.8" height="23" fill="#ffffff" fill-opacity="0.92"/>
<text x="500.0" y="1242.5" font-size="11.5" fill="#333333" text-anchor="middle">TTL serial packet</text>
<path d="M 580.0 1208.0 L 580.0 1239.0 L 740.0 1239.0 L 740.0 1270.0" fill="none" stroke="#333333" stroke-width="1.75" marker-end="url(#arrow)"/>
<rect x="605.6" y="1227.5" width="108.8" height="23" fill="#ffffff" fill-opacity="0.92"/>
<text x="660.0" y="1242.5" font-size="11.5" fill="#333333" text-anchor="middle">TTL serial packet</text>
<path d="M 930.0 470.0 L 930.0 15.0 L 190.0 15.0 L 190.0 60.0" fill="none" stroke="#666666" stroke-width="1.75" stroke-dasharray="7,5" marker-end="url(#arrow)"/>
<rect x="464.0" y="3.5" width="192.0" height="23" fill="#ffffff" fill-opacity="0.92"/>
<text x="560.0" y="18.5" font-size="11.5" fill="#333333" text-anchor="middle">target lost -> ACQUIRE resumes</text>
<path d="M 1080.0 105.0 L 1115.0 105.0 L 1115.0 509.0 L 1220.0 509.0" fill="none" stroke="#666666" stroke-width="1.75" stroke-dasharray="7,5" marker-end="url(#arrow)"/>
<rect x="1051.0" y="295.5" width="128.0" height="23" fill="#ffffff" fill-opacity="0.92"/>
<text x="1115.0" y="310.5" font-size="11.5" fill="#333333" text-anchor="middle">frame: ndarray (BGR)</text>
<path d="M 340.0 90.0 L 400.0 90.0 L 400.0 35.0 L 1175.0 35.0 L 1175.0 489.0 L 1220.0 489.0" fill="none" stroke="#666666" stroke-width="1.75" stroke-dasharray="7,5" marker-end="url(#arrow)"/>
<rect x="701.1" y="23.5" width="172.8" height="23" fill="#ffffff" fill-opacity="0.92"/>
<text x="787.5" y="38.5" font-size="11.5" fill="#333333" text-anchor="middle">frame: ndarray (BGR), inset</text>
<path d="M 420.0 1360.0 L 420.0 1400.0 L 1135.0 1400.0 L 1135.0 150.0 L 900.0 150.0" fill="none" stroke="#666666" stroke-width="1.75" stroke-dasharray="7,5" marker-end="url(#arrow)"/>
<rect x="602.0" y="1388.5" width="96.0" height="23" fill="#ffffff" fill-opacity="0.92"/>
<text x="650.0" y="1403.5" font-size="11.5" fill="#333333" text-anchor="middle">physically aims</text>
<path d="M 740.0 1360.0 L 740.0 1400.0 L 1155.0 1400.0 L 1155.0 150.0 L 960.0 150.0" fill="none" stroke="#666666" stroke-width="1.75" stroke-dasharray="7,5" marker-end="url(#arrow)"/>
<rect x="952.0" y="1388.5" width="96.0" height="23" fill="#ffffff" fill-opacity="0.92"/>
<text x="1000.0" y="1403.5" font-size="11.5" fill="#333333" text-anchor="middle">physically aims</text>
<path d="M 1330.0 548.0 L 1330.0 579.0 L 1330.0 579.0 L 1330.0 610.0" fill="none" stroke="#666666" stroke-width="1.75" stroke-dasharray="7,5" marker-end="url(#arrow)"/>
<rect x="1278.8" y="567.5" width="102.4" height="23" fill="#ffffff" fill-opacity="0.92"/>
<text x="1330.0" y="582.5" font-size="11.5" fill="#333333" text-anchor="middle">composited frame</text>
<rect x="40" y="60" width="300" height="90" rx="7" ry="7" fill="#dae8fc" stroke="#6c8ebf" stroke-width="2"/>
<text x="190.0" y="99.0" font-size="14" font-weight="600" fill="#1a1a1a" text-anchor="middle">wide IMX477 (fixed)</text>
<text x="190.0" y="119.0" font-size="11.5" fill="#333333" text-anchor="middle">nvarguscamerasrc, 1920x1080@30fps</text>
<rect x="780" y="60" width="300" height="90" rx="7" ry="7" fill="#dae8fc" stroke="#6c8ebf" stroke-width="2"/>
<text x="930.0" y="99.0" font-size="14" font-weight="600" fill="#1a1a1a" text-anchor="middle">telephoto IMX477 (on gimbal)</text>
<text x="930.0" y="119.0" font-size="11.5" fill="#333333" text-anchor="middle">nvarguscamerasrc, 1920x1080@30fps</text>
<rect x="430" y="270" width="300" height="90" rx="7" ry="7" fill="#d5e8d4" stroke="#82b366" stroke-width="2"/>
<text x="580.0" y="309.0" font-size="14" font-weight="600" fill="#1a1a1a" text-anchor="middle">YoloDetector (shared)</text>
<text x="580.0" y="329.0" font-size="11.5" fill="#333333" text-anchor="middle">track(frame, reset=source changed)</text>
<rect x="40" y="470" width="300" height="84" rx="7" ry="7" fill="#d5e8d4" stroke="#82b366" stroke-width="2"/>
<text x="190.0" y="506.0" font-size="14" font-weight="600" fill="#1a1a1a" text-anchor="middle">TrackManager (wide)</text>
<text x="190.0" y="526.0" font-size="11.5" fill="#333333" text-anchor="middle">sticky lock -- ACQUIRE only</text>
<rect x="780" y="470" width="300" height="84" rx="7" ry="7" fill="#d5e8d4" stroke="#82b366" stroke-width="2"/>
<text x="930.0" y="506.0" font-size="14" font-weight="600" fill="#1a1a1a" text-anchor="middle">TrackManager (tele)</text>
<text x="930.0" y="526.0" font-size="11.5" fill="#333333" text-anchor="middle">sticky lock -- HANDOFF only</text>
<rect x="40" y="650" width="300" height="84" rx="7" ry="7" fill="#fff2cc" stroke="#d6b656" stroke-width="2"/>
<text x="190.0" y="686.0" font-size="14" font-weight="600" fill="#1a1a1a" text-anchor="middle">WideHandoffMapper.pixel_to_goal()</text>
<text x="190.0" y="706.0" font-size="11.5" fill="#333333" text-anchor="middle">calibrated wide-px -> absolute ticks</text>
<rect x="780" y="650" width="300" height="78" rx="7" ry="7" fill="#fff2cc" stroke="#d6b656" stroke-width="2"/>
<text x="930.0" y="683.0" font-size="14" font-weight="600" fill="#1a1a1a" text-anchor="middle">pixel error</text>
<text x="930.0" y="703.0" font-size="11.5" fill="#333333" text-anchor="middle">target point - frame center</text>
<rect x="780" y="810" width="300" height="78" rx="7" ry="7" fill="#fff2cc" stroke="#d6b656" stroke-width="2"/>
<text x="930.0" y="843.0" font-size="14" font-weight="600" fill="#1a1a1a" text-anchor="middle">ProportionalGain (pan + tilt)</text>
<text x="930.0" y="863.0" font-size="11.5" fill="#333333" text-anchor="middle">kp * error, with deadband</text>
<rect x="450" y="990" width="260" height="78" rx="7" ry="7" fill="#ffe6cc" stroke="#d79b00" stroke-width="2"/>
<text x="580.0" y="1023.0" font-size="14" font-weight="600" fill="#1a1a1a" text-anchor="middle">PanTiltController</text>
<text x="580.0" y="1043.0" font-size="11.5" fill="#333333" text-anchor="middle">clamp, sync-write goal</text>
<rect x="450" y="1130" width="260" height="78" rx="7" ry="7" fill="#ffe6cc" stroke="#d79b00" stroke-width="2"/>
<text x="580.0" y="1163.0" font-size="14" font-weight="600" fill="#1a1a1a" text-anchor="middle">U2D2 adapter</text>
<text x="580.0" y="1183.0" font-size="11.5" fill="#333333" text-anchor="middle">/dev/ttyUSB0, TTL serial</text>
<rect x="290" y="1270" width="260" height="90" rx="7" ry="7" fill="#ffe6cc" stroke="#d79b00" stroke-width="2"/>
<text x="420.0" y="1309.0" font-size="14" font-weight="600" fill="#1a1a1a" text-anchor="middle">XL330 pan servo (id=1)</text>
<text x="420.0" y="1329.0" font-size="11.5" fill="#333333" text-anchor="middle">firmware position PID + profile vel/accel</text>
<rect x="610" y="1270" width="260" height="90" rx="7" ry="7" fill="#ffe6cc" stroke="#d79b00" stroke-width="2"/>
<text x="740.0" y="1309.0" font-size="14" font-weight="600" fill="#1a1a1a" text-anchor="middle">XL330 tilt servo (id=2)</text>
<text x="740.0" y="1329.0" font-size="11.5" fill="#333333" text-anchor="middle">firmware position PID + profile vel/accel</text>
<rect x="1220" y="470" width="220" height="78" rx="7" ry="7" fill="#f5f5f5" stroke="#666666" stroke-width="2"/>
<text x="1330.0" y="503.0" font-size="14" font-weight="600" fill="#1a1a1a" text-anchor="middle">PipRtspRelay</text>
<text x="1330.0" y="523.0" font-size="11.5" fill="#333333" text-anchor="middle">compose_pip(), optional</text>
<rect x="1220" y="610" width="220" height="78" rx="7" ry="7" fill="#f5f5f5" stroke="#666666" stroke-width="2"/>
<text x="1330.0" y="643.0" font-size="14" font-weight="600" fill="#1a1a1a" text-anchor="middle">RTSP server</text>
<text x="1330.0" y="663.0" font-size="11.5" fill="#333333" text-anchor="middle">x264enc, optional</text>
<rect x="40" y="1500" width="18" height="18" rx="3" fill="#dae8fc" stroke="#6c8ebf" stroke-width="2"/>
<text x="66" y="1514" font-size="12.5" fill="#333333">camera source</text>
<rect x="189.60000000000002" y="1500" width="18" height="18" rx="3" fill="#d5e8d4" stroke="#82b366" stroke-width="2"/>
<text x="215.60000000000002" y="1514" font-size="12.5" fill="#333333">detection / tracking</text>
<rect x="389.6" y="1500" width="18" height="18" rx="3" fill="#fff2cc" stroke="#d6b656" stroke-width="2"/>
<text x="415.6" y="1514" font-size="12.5" fill="#333333">geometry / control math</text>
<rect x="611.2" y="1500" width="18" height="18" rx="3" fill="#ffe6cc" stroke="#d79b00" stroke-width="2"/>
<text x="637.2" y="1514" font-size="12.5" fill="#333333">hardware I/O</text>
<rect x="753.6" y="1500" width="18" height="18" rx="3" fill="#f5f5f5" stroke="#666666" stroke-width="2"/>
<text x="779.6" y="1514" font-size="12.5" fill="#333333">streaming (optional)</text>
</svg>